<svg id="Capa_1" enable-background="new 0 0 512 512" height="512" viewBox="0 0 512 512" width="512" xmlns="http://www.w3.org/2000/svg"><g><path fill="#0069d5" d="m472 287.017v-77.017c0-116.8-100.705-210-216-210-114.871 0-216 92.861-216 210v77.017c-22.792 4.648-40 24.839-40 48.983 0 24.441 17.63 44.844 40.841 49.159 4.315 23.211 24.717 40.841 49.159 40.841h20c5.523 0 10-4.478 10-10v-160c0-5.522-4.477-10-10-10h-20c-11.249 0-21.637 3.741-30 10.035v-36.939c21.465-3.896 38.793-20.153 43.75-42.19 14.993-66.647 80.446-116.906 152.25-116.906 71.829 0 137.325 50.309 152.349 117.022 4.949 21.972 22.236 38.181 43.651 42.073v36.94c-8.363-6.294-18.751-10.035-30-10.035h-20c-5.523 0-10 4.478-10 10v160c0 5.522 4.477 10 10 10h20c11.168 0 21.486-3.689 29.818-9.901-2.094 25.658-23.629 45.901-49.818 45.901h-107.266c-4.452-17.233-20.13-30-38.734-30-22.056 0-40 17.944-40 40s17.944 40 40 40c18.604 0 34.282-12.767 38.734-30h107.266c38.598 0 70-31.402 70-70v-27.017c22.792-4.648 40-24.839 40-48.983s-17.208-44.335-40-48.983zm-382-21.017h10v140h-10c-16.542 0-30-13.458-30-30 0-5.522-4.477-10-10-10-16.542 0-30-13.458-30-30s13.458-30 30-30c5.523 0 10-4.478 10-10 0-16.542 13.458-30 30-30zm337.86-93.372c-17.027-75.61-90.911-132.628-171.86-132.628-80.926 0-154.768 56.97-171.763 132.518-2.845 12.646-12.066 22.312-23.845 25.931 6.402-97.861 93.363-178.449 195.608-178.449 102.244 0 189.204 80.586 195.607 178.446-11.731-3.612-20.912-13.233-23.747-25.818zm34.14 193.372c-5.523 0-10 4.478-10 10 0 16.542-13.458 30-30 30h-10v-140h10c16.542 0 30 13.458 30 30 0 5.522 4.477 10 10 10 16.542 0 30 13.458 30 30s-13.458 30-30 30z"/></g></svg>